<svg width="33" height="32" viewBox="0 0 33 32" fill="none" xmlns="http://www.w3.org/2000/svg">
<path d="M15.8772 3.93223L15.8901 3.93191C16.3827 3.91984 16.6588 4.49452 16.3421 4.87144C16.0561 5.22109 15.9007 5.65704 15.9004 6.10893C15.9005 7.19628 16.7722 8.07056 17.8589 8.07056C18.31 8.07005 18.7482 7.91151 19.0981 7.62533C19.3058 7.44706 19.5859 7.45594 19.7822 7.5909C19.9857 7.73079 20.0917 7.99648 19.9891 8.30596C19.5883 9.78732 18.2724 10.8294 16.7442 10.8952V11.4241C17.1955 12.1075 17.9204 12.6888 18.7861 13.254C19.2255 13.5409 19.6972 13.8213 20.1834 14.1079C20.2298 14.1352 20.2763 14.1626 20.3229 14.1901C20.7642 14.45 21.2155 14.7158 21.6597 14.995C23.6842 16.2674 25.5654 17.8797 25.6024 20.873C25.6198 22.2801 25.318 24.1399 23.9665 25.7863H24.1869C24.9637 25.7863 25.6041 26.4278 25.6041 27.2044V28.888V28.8886H25.4541C25.455 29.1228 25.2649 29.313 25.0306 29.3121L15.8772 3.93223ZM15.8772 3.93223L15.8645 3.93476M15.8772 3.93223L15.8645 3.93476M6.74049 28.8883C6.73951 29.2039 6.99437 29.4608 7.3101 29.4621H7.31071H25.03L6.89049 28.8886M6.74049 28.8883C6.74049 28.8882 6.74049 28.8881 6.74049 28.888L6.89049 28.8886M6.74049 28.8883V28.8886H6.89049M6.74049 28.8883V27.2044C6.74049 26.4283 7.37711 25.7863 8.15442 25.7863H22.3258M6.89049 28.8886V27.2044C6.89049 26.5105 7.46058 25.9363 8.15442 25.9363H22.3775M22.3258 25.7863C22.3124 25.7969 22.299 25.8074 22.2856 25.8178L22.3775 25.9363M22.3258 25.7863H22.3775V25.9363M22.3258 25.7863L22.3775 25.9363M15.8645 3.93476C13.9516 4.31609 13.0684 6.03244 13.0684 7.37604M15.8645 3.93476L13.0684 7.37604M13.0684 7.37604C13.0684 8.9732 14.1412 10.3211 15.6004 10.7513M13.0684 7.37604L15.6004 10.7513M15.6004 10.7513V11.4217C15.1493 12.1064 14.4273 12.6941 13.5635 13.2623C13.0283 13.6144 12.4501 13.9521 11.8557 14.2993C11.4699 14.5247 11.0771 14.7541 10.6848 14.994C8.47745 16.3441 6.76015 18.0555 6.7405 20.8738C6.72753 22.7226 7.24848 24.0956 7.83718 25.0488L15.6004 10.7513ZM16.0757 12.4424C16.1082 12.4024 16.1401 12.3619 16.1715 12.321C16.2029 12.362 16.2348 12.4025 16.2672 12.4424C16.2358 12.4828 16.2039 12.5228 16.1714 12.5623C16.1391 12.5229 16.1071 12.4829 16.0757 12.4424ZM8.81006 24.4478C8.80969 24.4473 8.80932 24.4467 8.80894 24.4461L8.68341 24.5282L8.81101 24.4494C8.81069 24.4488 8.81038 24.4483 8.81006 24.4478ZM14.2121 7.37621C14.2127 6.80391 14.419 6.27483 14.7666 5.86049C14.7596 5.94263 14.7559 6.02543 14.7558 6.10873V6.10883C14.7558 7.81743 16.1499 9.2143 17.8589 9.2143H17.859C17.9424 9.21421 18.0253 9.21042 18.1075 9.20326C17.6935 9.54915 17.1652 9.75406 16.5939 9.75473C15.2737 9.75464 14.2122 8.69591 14.2121 7.37621ZM8.15442 26.9301H24.1869C24.3447 26.9301 24.4604 27.0459 24.4604 27.2044V28.3183H7.88422V27.2044C7.88422 27.0443 7.99821 26.9301 8.15442 26.9301Z" fill="#8789A3" stroke="#8789A3" stroke-width="0.3"/>
</svg>
