<svg width="20" height="27" viewBox="0 0 20 27" fill="none" xmlns="http://www.w3.org/2000/svg">
<path d="M9.87717 0.932227L9.89012 0.931909C10.3827 0.919838 10.6587 1.49448 10.3421 1.87141C10.0562 2.22106 9.90073 2.65703 9.90044 3.10893C9.90049 4.19628 10.7722 5.07056 11.8589 5.07056C12.31 5.07005 12.7482 4.91151 13.0981 4.62533C13.3058 4.44706 13.5859 4.45594 13.7822 4.5909C13.9857 4.73079 14.0917 4.99648 13.9891 5.30596C13.5883 6.78732 12.2724 7.82944 10.7442 7.89517V8.42406C11.1955 9.10751 11.9204 9.6888 12.7861 10.254C13.2255 10.5409 13.6972 10.8213 14.1834 11.1079C14.2298 11.1352 14.2763 11.1626 14.3229 11.1901C14.7642 11.45 15.2155 11.7158 15.6597 11.995C17.6842 13.2674 19.5654 14.8797 19.6024 17.873C19.6198 19.2801 19.318 21.1399 17.9665 22.7863H18.1869C18.9637 22.7863 19.6041 23.4278 19.6041 24.2044V25.888V25.8886H19.4541C19.455 26.1228 19.2649 26.313 19.0306 26.3121L9.87717 0.932227ZM9.87717 0.932227L9.86447 0.934759M9.87717 0.932227L9.86447 0.934759M0.740492 25.8883C0.739507 26.2039 0.994365 26.4608 1.3101 26.4621H1.31071H19.03L0.890492 25.8886M0.740492 25.8883C0.740492 25.8882 0.740493 25.8881 0.740493 25.888L0.890492 25.8886M0.740492 25.8883V25.8886H0.890492M0.740492 25.8883V24.2044C0.740492 23.4283 1.37711 22.7863 2.15442 22.7863H16.3258M0.890492 25.8886V24.2044C0.890492 23.5105 1.46058 22.9363 2.15442 22.9363H16.3775M16.3258 22.7863C16.3124 22.7969 16.299 22.8074 16.2856 22.8178L16.3775 22.9363M16.3258 22.7863H16.3775V22.9363M16.3258 22.7863L16.3775 22.9363M9.86447 0.934759C7.95162 1.31609 7.06843 3.03244 7.06843 4.37604M9.86447 0.934759L7.06843 4.37604M7.06843 4.37604C7.06845 5.9732 8.14116 7.32111 9.60044 7.75133M7.06843 4.37604L9.60044 7.75133M9.60044 7.75133V8.42166C9.14926 9.10643 8.42732 9.6941 7.56352 10.2623C7.02827 10.6144 6.45015 10.9521 5.85573 11.2993C5.46987 11.5247 5.07713 11.7541 4.68479 11.994C2.47745 13.3441 0.760153 15.0555 0.740496 17.8738C0.727534 19.7226 1.24848 21.0956 1.83718 22.0488L9.60044 7.75133ZM10.0757 9.44239C10.1082 9.40239 10.1401 9.36192 10.1715 9.32096C10.2029 9.36201 10.2348 9.40249 10.2672 9.44242C10.2358 9.48285 10.2039 9.52279 10.1714 9.56229C10.1391 9.52285 10.1071 9.4829 10.0757 9.44239ZM2.81006 21.4478C2.80969 21.4473 2.80932 21.4467 2.80894 21.4461L2.68341 21.5282L2.81101 21.4494C2.81069 21.4488 2.81038 21.4483 2.81006 21.4478ZM8.76662 2.86056C8.75958 2.94268 8.75587 3.02545 8.75582 3.10873V3.10883C8.75582 4.81743 10.1499 6.2143 11.8589 6.2143H11.859C11.9424 6.21421 12.0253 6.21042 12.1075 6.20326C11.6935 6.54915 11.1652 6.75406 10.5939 6.75473C9.2737 6.75464 8.2122 5.69591 8.2121 4.37621C8.21272 3.80394 8.41904 3.2749 8.76662 2.86056ZM2.15442 23.9301H18.1869C18.3447 23.9301 18.4604 24.0459 18.4604 24.2044V25.3183H1.88422V24.2044C1.88422 24.0443 1.99821 23.9301 2.15442 23.9301Z" fill="#8789A3" stroke="#8789A3" stroke-width="0.3"/>
</svg>
