<svg width="15" height="18" viewBox="0 0 15 18" fill="none" xmlns="http://www.w3.org/2000/svg">
<path fill-rule="evenodd" clip-rule="evenodd" d="M13.7146 9.51302L1.94465 16.9054C1.85175 16.9636 1.74474 16.9962 1.63476 16.9997C1.52478 17.0032 1.41586 16.9775 1.31938 16.9253C1.22289 16.873 1.14235 16.7962 1.08618 16.7028C1.03 16.6094 1.00024 16.5028 1 16.3942V1.607C1.00002 1.49827 1.02963 1.39154 1.08571 1.29796C1.1418 1.20439 1.22231 1.1274 1.31884 1.07504C1.41536 1.02268 1.52436 0.996866 1.63445 1.0003C1.74453 1.00374 1.85166 1.0363 1.94465 1.09458L13.7158 8.48941C13.8029 8.54428 13.8746 8.61993 13.9243 8.70939C13.974 8.79884 14 8.8992 14 9.00121C14 9.10322 13.974 9.20359 13.9243 9.29304C13.8746 9.3825 13.8029 9.45815 13.7158 9.51302H13.7146Z" stroke="#03AA77" stroke-width="2" stroke-linecap="round"/>
</svg>
