<svg width="33" height="32" viewBox="0 0 33 32" fill="none" xmlns="http://www.w3.org/2000/svg">
<g clip-path="url(#clip0_0_1128)">
<path d="M30.0348 24.4396C29.9948 24.4246 29.0348 24.0346 27.0073 23.9396C26.0974 23.9106 25.1867 23.9583 24.2848 24.0821C24.3897 23.811 24.4243 23.5178 24.3854 23.2297C24.3465 22.9417 24.2354 22.6681 24.0623 22.4346L23.9173 22.2371C23.8371 22.1348 23.7202 22.0677 23.5914 22.0501C23.4626 22.0326 23.3321 22.0658 23.2274 22.1429C23.1227 22.2199 23.0521 22.3347 23.0306 22.4629C23.0091 22.5911 23.0384 22.7226 23.1123 22.8296L23.2573 23.0271C23.3144 23.1043 23.3557 23.1921 23.3788 23.2854C23.402 23.3786 23.4065 23.4755 23.3921 23.5705C23.3777 23.6655 23.3446 23.7567 23.2949 23.8389C23.2452 23.9212 23.1797 23.9927 23.1023 24.0496L22.6473 24.3846C22.5705 24.4424 22.483 24.4841 22.3898 24.5073C22.2966 24.5305 22.1996 24.5347 22.1048 24.5196C22.01 24.5052 21.9189 24.4722 21.837 24.4224C21.755 24.3727 21.6837 24.3071 21.6273 24.2296L19.8448 21.8146C19.7299 21.659 19.6815 21.4643 19.7101 21.2731C19.7387 21.0818 19.8419 20.9097 19.9973 20.7946L20.4548 20.4571C20.5312 20.3985 20.6185 20.3557 20.7117 20.3313C20.8048 20.3068 20.9019 20.3011 20.9973 20.3146C21.0921 20.328 21.1833 20.3603 21.2653 20.4097C21.3473 20.4591 21.4186 20.5245 21.4748 20.6021L21.9248 21.2121C22.0035 21.3182 22.1211 21.3889 22.2518 21.4085C22.3826 21.4282 22.5157 21.3953 22.6223 21.3171C22.6754 21.2783 22.7203 21.2293 22.7544 21.1731C22.7886 21.1169 22.8113 21.0544 22.8213 20.9894C22.8313 20.9244 22.8284 20.858 22.8126 20.7941C22.7969 20.7302 22.7688 20.6701 22.7298 20.6171L22.4798 20.2746C22.5476 20.2868 22.616 20.2951 22.6848 20.2996H22.8598C23.3939 20.2996 23.9111 20.112 24.3211 19.7696C24.7311 19.4272 25.0079 18.9517 25.1031 18.4261C25.1984 17.9005 25.106 17.3581 24.8423 16.8937C24.5785 16.4292 24.16 16.072 23.6598 15.8846C23.9883 15.6022 24.2296 15.2321 24.3554 14.8176C24.4812 14.403 24.4863 13.9612 24.3701 13.5439C24.2539 13.1265 24.0212 12.7509 23.6993 12.4611C23.3773 12.1712 22.9795 11.979 22.5523 11.9071C22.6588 11.842 22.76 11.7684 22.8548 11.6871C23.0831 11.493 23.2705 11.2553 23.4057 10.9878C23.5409 10.7203 23.6214 10.4286 23.6423 10.1296C23.6849 9.52713 23.4871 8.93232 23.0921 8.47545C22.6971 8.01857 22.1371 7.73689 21.5348 7.69209C21.4698 7.69209 21.4048 7.69209 21.3398 7.69209C21.507 7.40214 21.6069 7.07834 21.6323 6.74459C21.665 6.34536 21.592 5.94455 21.4207 5.58244C21.2495 5.22033 20.9859 4.90967 20.6566 4.68166C20.3273 4.45365 19.9437 4.31633 19.5445 4.2835C19.1453 4.25066 18.7444 4.32346 18.3823 4.49459C18.3823 4.46209 18.3823 4.42709 18.3823 4.39459C18.4147 3.94657 18.3141 3.49895 18.0931 3.1079C17.872 2.71686 17.5404 2.39983 17.1398 2.1966C16.7392 1.99336 16.2875 1.91299 15.8414 1.96556C15.3953 2.01813 14.9746 2.20131 14.6323 2.49209C14.4198 2.67397 14.2427 2.89347 14.1098 3.13959C14.0771 2.59439 13.8495 2.0791 13.4686 1.68765C13.0878 1.2962 12.5789 1.05467 12.0348 1.00709C11.7359 0.983302 11.4354 1.019 11.1504 1.11212C10.8655 1.20524 10.6019 1.35393 10.3748 1.54959C10.0013 1.86316 9.73988 2.28956 9.62977 2.76459C9.53964 2.46148 9.38751 2.18041 9.18303 1.93919C8.97855 1.69797 8.72618 1.50188 8.44192 1.36334C8.15766 1.22479 7.84771 1.14683 7.53173 1.13439C7.21575 1.12195 6.90064 1.1753 6.60636 1.29107C6.31209 1.40683 6.04508 1.58247 5.82227 1.80687C5.59946 2.03126 5.4257 2.29951 5.31202 2.59459C5.19834 2.88967 5.14722 3.20516 5.16189 3.52104C5.17657 3.83693 5.25672 4.14632 5.39727 4.42959C5.04518 4.34215 4.67723 4.34056 4.3244 4.42497C3.97157 4.50937 3.64418 4.67729 3.36977 4.91459C3.09977 5.1455 2.88753 5.43637 2.75002 5.76395C2.61251 6.09154 2.55355 6.44675 2.57784 6.80119C2.60214 7.15563 2.70901 7.49947 2.88993 7.80523C3.07085 8.11099 3.32079 8.37018 3.61977 8.56209C3.25638 8.67203 2.92621 8.87098 2.6592 9.14087C2.39219 9.41076 2.1968 9.74305 2.09076 10.1076C1.98473 10.4721 1.9714 10.8574 2.05199 11.2284C2.13259 11.5994 2.30455 11.9444 2.55227 12.2321C2.74695 12.46 2.9848 12.6471 3.2521 12.7827C3.5194 12.9183 3.81089 12.9996 4.10977 13.0221H4.26977C4.01004 13.346 3.84366 13.7346 3.78859 14.1461C3.73352 14.5576 3.79185 14.9763 3.95728 15.3571C4.12271 15.7378 4.38896 16.0662 4.72732 16.3068C5.06567 16.5473 5.46329 16.6909 5.87727 16.7221H6.05477C6.57815 16.7234 7.0856 16.5421 7.48977 16.2096C7.45456 16.3413 7.43195 16.4761 7.42227 16.6121C7.39842 16.9121 7.43428 17.2139 7.52778 17.5C7.62128 17.7861 7.77057 18.0509 7.96701 18.2789C8.16345 18.507 8.40314 18.6939 8.67224 18.8287C8.94134 18.9636 9.2345 19.0437 9.53477 19.0646H9.70977C10.1095 19.065 10.5022 18.9588 10.8473 18.7571C10.8473 18.8021 10.8348 18.8496 10.8298 18.8971C10.7843 19.5004 10.9802 20.0971 11.3744 20.556C11.7687 21.015 12.329 21.2986 12.9323 21.3446H13.1073C13.5611 21.3459 14.0046 21.2099 14.3798 20.9546C14.3357 21.5568 14.5323 22.1519 14.9265 22.6094C15.3206 23.0668 15.8801 23.3492 16.4823 23.3946H16.6573C17.1245 23.3943 17.5802 23.2502 17.9627 22.9818C18.3451 22.7134 18.6356 22.3338 18.7948 21.8946C18.8516 22.0733 18.9359 22.242 19.0448 22.3946L20.8223 24.8146C20.9562 24.9979 21.1253 25.1527 21.3198 25.2699C21.5142 25.3871 21.7301 25.4643 21.9548 25.4971C22.0374 25.5105 22.121 25.5172 22.2048 25.5171C22.3541 25.5169 22.5028 25.4976 22.6473 25.4596C22.7411 26.5109 22.9362 27.5507 23.2298 28.5646C23.7948 30.5146 24.4048 31.3496 24.4298 31.3846C24.51 31.4869 24.6268 31.5539 24.7556 31.5715C24.8844 31.5891 25.015 31.5559 25.1197 31.4788C25.2244 31.4018 25.2949 31.287 25.3164 31.1588C25.3379 31.0306 25.3086 30.8991 25.2348 30.7921C25.2348 30.7921 24.6998 30.0421 24.1898 28.2921C24.1323 28.0971 24.0823 27.9046 24.0348 27.7146C24.1648 27.9646 24.3073 28.2146 24.4598 28.4646C25.5148 30.2146 26.3198 30.8521 26.3548 30.8771C26.4579 30.9583 26.5889 30.9958 26.7194 30.9813C26.8499 30.9668 26.9695 30.9015 27.0523 30.7996C27.1354 30.6964 27.1741 30.5645 27.1601 30.4328C27.146 30.3011 27.0803 30.1804 26.9773 30.0971C26.9773 30.0971 26.2873 29.5271 25.3623 28.0221C26.6723 29.5746 27.5673 30.0896 27.6123 30.1121C27.7273 30.1784 27.864 30.1963 27.9922 30.1618C28.1204 30.1274 28.2297 30.0434 28.296 29.9283C28.3623 29.8133 28.3802 29.6766 28.3458 29.5484C28.3113 29.4202 28.2273 29.3109 28.1123 29.2446C28.1123 29.2446 27.3148 28.7721 26.1373 27.3771C25.9223 27.1271 25.7248 26.8771 25.5448 26.6271C25.8673 26.7546 26.2073 26.9021 26.5448 27.0721C28.1823 27.8821 28.8248 28.5346 28.8298 28.5396C28.8765 28.5886 28.9328 28.6277 28.9951 28.6543C29.0574 28.681 29.1245 28.6947 29.1923 28.6946C29.2897 28.6942 29.3849 28.6654 29.4662 28.6117C29.5475 28.558 29.6113 28.4817 29.6498 28.3922C29.6883 28.3027 29.6998 28.2039 29.6829 28.108C29.6661 28.012 29.6215 27.9231 29.5548 27.8521C29.5248 27.8196 28.8048 27.0746 26.9873 26.1771C28.6723 26.7121 29.3823 27.2396 29.3873 27.2446C29.4749 27.3114 29.5821 27.3475 29.6923 27.3471C29.7964 27.3468 29.8978 27.314 29.9823 27.2532C30.0669 27.1925 30.1304 27.1069 30.164 27.0084C30.1976 26.9098 30.1996 26.8033 30.1697 26.7035C30.1398 26.6038 30.0795 26.5159 29.9973 26.4521C29.9648 26.4271 29.1398 25.8021 27.2023 25.2021C26.9223 25.1146 26.6448 25.0371 26.3798 24.9696H26.9698C28.7948 25.0421 29.6473 25.3796 29.6548 25.3821C29.7152 25.4065 29.7796 25.4192 29.8448 25.4196C29.9711 25.4364 30.0992 25.4043 30.2027 25.3299C30.3062 25.2554 30.3773 25.1443 30.4016 25.0191C30.4259 24.894 30.4014 24.7643 30.3332 24.6565C30.265 24.5488 30.1583 24.4712 30.0348 24.4396ZM23.8273 17.1896C23.9378 17.3168 24.022 17.4648 24.0748 17.6249C24.1276 17.785 24.148 17.954 24.1348 18.1221C24.1237 18.2912 24.0792 18.4565 24.0037 18.6083C23.9283 18.76 23.8234 18.8953 23.6953 19.0063C23.5671 19.1172 23.4182 19.2016 23.2572 19.2545C23.0962 19.3074 22.9262 19.3279 22.7573 19.3146C22.4237 19.2942 22.1114 19.1441 21.887 18.8965C21.6626 18.6489 21.5439 18.3234 21.5563 17.9895C21.5687 17.6555 21.7112 17.3397 21.9534 17.1094C22.1955 16.8791 22.5181 16.7527 22.8523 16.7571H22.9498C23.1174 16.7691 23.281 16.8142 23.4312 16.8897C23.5814 16.9652 23.7151 17.0697 23.8248 17.1971L23.8273 17.1896ZM23.1448 13.3296C23.2825 13.489 23.3788 13.68 23.4252 13.8855C23.4716 14.091 23.4667 14.3048 23.4108 14.5079C23.355 14.7111 23.2499 14.8973 23.105 15.0503C22.9601 15.2032 22.7797 15.318 22.5798 15.3846C22.3799 15.4513 22.1667 15.4676 21.959 15.4323C21.7513 15.3969 21.5555 15.3109 21.3889 15.1819C21.2223 15.0529 21.0901 14.8848 21.0039 14.6926C20.9177 14.5003 20.8803 14.2898 20.8948 14.0796C20.9193 13.7579 21.0641 13.4573 21.3005 13.2377C21.5368 13.018 21.8472 12.8955 22.1698 12.8946H22.2698C22.607 12.9198 22.9211 13.0759 23.1448 13.3296ZM21.3673 8.68459H21.4648C21.6725 8.70334 21.8724 8.77255 22.0473 8.8862C22.2221 8.99985 22.3665 9.15449 22.468 9.33668C22.5694 9.51887 22.6248 9.72309 22.6294 9.93157C22.6339 10.1401 22.5874 10.3465 22.494 10.5329C22.4006 10.7193 22.263 10.8801 22.0933 11.0013C21.9235 11.1224 21.7268 11.2002 21.5201 11.228C21.3134 11.2558 21.1031 11.2326 20.9074 11.1606C20.7117 11.0885 20.5366 10.9697 20.3973 10.8146C20.287 10.6872 20.2033 10.5392 20.1509 10.379C20.0985 10.2189 20.0786 10.05 20.0923 9.88209C20.1138 9.55818 20.2573 9.25449 20.4939 9.03225C20.7306 8.81001 21.0427 8.68578 21.3673 8.68459ZM18.5348 5.59459C18.7658 5.39421 19.0615 5.28411 19.3673 5.28459H19.4648C19.8035 5.31064 20.1181 5.46974 20.3398 5.72709C20.5052 5.91871 20.6102 6.1551 20.6413 6.40636C20.6724 6.65762 20.6283 6.91247 20.5146 7.13867C20.4008 7.36486 20.2226 7.55225 20.0024 7.67713C19.7821 7.80202 19.5298 7.85878 19.2773 7.84024C19.0248 7.82171 18.7835 7.72871 18.5838 7.573C18.3842 7.4173 18.2352 7.20589 18.1557 6.96551C18.0762 6.72513 18.0698 6.46657 18.1373 6.22255C18.2048 5.97853 18.3431 5.75999 18.5348 5.59459ZM15.3098 3.25459C15.5015 3.09206 15.7368 2.98957 15.9864 2.95989C16.2359 2.93021 16.4887 2.97467 16.7132 3.0877C16.9377 3.20074 17.1239 3.37736 17.2487 3.59554C17.3734 3.81372 17.4312 4.0638 17.4148 4.31459C17.3889 4.6534 17.2295 4.96807 16.9717 5.18936C16.7138 5.41066 16.3786 5.52045 16.0398 5.49459C15.701 5.46873 15.3863 5.30934 15.165 5.05148C14.9437 4.79361 14.8339 4.4584 14.8598 4.11959C14.8727 3.95333 14.9185 3.79129 14.9945 3.64282C15.0704 3.49435 15.175 3.3624 15.3023 3.25459H15.3098ZM11.0173 2.31459C11.2483 2.11421 11.544 2.00411 11.8498 2.00459H11.9498C12.1179 2.01739 12.2818 2.06318 12.4322 2.13934C12.5826 2.21549 12.7165 2.32052 12.8263 2.44844C12.9361 2.57635 13.0196 2.72464 13.0721 2.88483C13.1246 3.04503 13.1451 3.214 13.1323 3.38209C13.1195 3.55018 13.0737 3.71411 12.9975 3.8645C12.9214 4.0149 12.8163 4.14882 12.6884 4.25863C12.5605 4.36844 12.4122 4.45197 12.252 4.50447C12.0918 4.55696 11.9229 4.57739 11.7548 4.56459C11.5007 4.54826 11.2572 4.45651 11.0555 4.30107C10.8538 4.14563 10.7031 3.93357 10.6225 3.692C10.542 3.45043 10.5354 3.19033 10.6035 2.94497C10.6716 2.6996 10.8113 2.48012 11.0048 2.31459H11.0173ZM6.60977 2.45209C6.84078 2.25171 7.13646 2.14161 7.44227 2.14209H7.53477C7.78855 2.15984 8.03131 2.25266 8.2322 2.40874C8.43308 2.56483 8.58301 2.77714 8.66291 3.01867C8.74281 3.26019 8.74908 3.52002 8.68091 3.76512C8.61274 4.01021 8.47322 4.2295 8.28009 4.39509C8.08697 4.56068 7.84895 4.66509 7.59632 4.69504C7.3437 4.725 7.08787 4.67915 6.86137 4.56332C6.63487 4.44748 6.44793 4.26691 6.32434 4.04455C6.20074 3.8222 6.14607 3.5681 6.16727 3.31459C6.18056 3.14876 6.2265 2.9872 6.30244 2.83918C6.37838 2.69116 6.48282 2.55961 6.60977 2.45209ZM3.57727 6.54709C3.60179 6.22542 3.74665 5.9248 3.98295 5.70517C4.21926 5.48555 4.52966 5.36304 4.85227 5.36209H4.95227C5.29049 5.38829 5.60455 5.54743 5.8257 5.80466C6.04685 6.06189 6.15709 6.39627 6.13227 6.73459C6.12045 6.90255 6.07523 7.06646 5.99924 7.21671C5.92326 7.36696 5.81805 7.50053 5.68977 7.60959C5.49781 7.77525 5.26098 7.88017 5.00932 7.91104C4.75765 7.94191 4.50248 7.89734 4.27618 7.78299C4.04988 7.66863 3.86264 7.48964 3.73821 7.26872C3.61378 7.04779 3.55776 6.79489 3.57727 6.54209V6.54709ZM4.18477 12.0246C3.85672 11.9957 3.55234 11.8418 3.33471 11.5946C3.11707 11.3474 3.00284 11.026 3.0157 10.697C3.02855 10.3679 3.1675 10.0564 3.40375 9.82696C3.64001 9.59754 3.95546 9.46779 4.28477 9.46459H4.38227C4.72108 9.49012 5.03588 9.64919 5.25741 9.90682C5.47893 10.1644 5.58905 10.4995 5.56352 10.8383C5.53799 11.1772 5.37892 11.492 5.12129 11.7135C4.86366 11.935 4.52858 12.0451 4.18977 12.0196L4.18477 12.0246ZM6.88477 15.4246C6.72838 15.5592 6.54176 15.6541 6.34081 15.701C6.13986 15.748 5.93054 15.7456 5.73068 15.6942C5.53083 15.6428 5.34637 15.5438 5.19302 15.4057C5.03968 15.2676 4.922 15.0945 4.85001 14.9011C4.77803 14.7077 4.75387 14.4998 4.77959 14.295C4.80532 14.0903 4.88017 13.8948 4.99776 13.7252C5.11536 13.5556 5.27221 13.417 5.45495 13.3211C5.63769 13.2252 5.84091 13.175 6.04727 13.1746H6.14727C6.39972 13.1943 6.64068 13.2883 6.83978 13.4448C7.03889 13.6012 7.18722 13.8131 7.26609 14.0537C7.34496 14.2944 7.35084 14.5529 7.28298 14.7969C7.21512 15.0408 7.07656 15.2593 6.88477 15.4246ZM10.5348 17.7646C10.3783 17.8993 10.1916 17.9942 9.99051 18.0411C9.78944 18.088 9.58001 18.0856 9.38008 18.0341C9.18014 17.9825 8.99565 17.8834 8.84233 17.7451C8.689 17.6068 8.57141 17.4335 8.49957 17.2399C8.42774 17.0464 8.40379 16.8383 8.42978 16.6335C8.45577 16.4286 8.53093 16.2331 8.64883 16.0636C8.76674 15.8942 8.92389 15.7557 9.10689 15.6601C9.28989 15.5645 9.4933 15.5146 9.69977 15.5146H9.78477C9.95259 15.5272 10.1163 15.5729 10.2664 15.6488C10.4166 15.7248 10.5503 15.8297 10.6599 15.9574C10.7695 16.0851 10.8529 16.2332 10.9052 16.3931C10.9575 16.5531 10.9777 16.7218 10.9648 16.8896C10.9545 17.0566 10.9113 17.22 10.8375 17.3702C10.7636 17.5204 10.6608 17.6544 10.5348 17.7646ZM13.9298 20.0646C13.7734 20.2007 13.5863 20.2968 13.3846 20.3448C13.1829 20.3928 12.9725 20.3911 12.7716 20.34C12.5707 20.2888 12.3851 20.1897 12.2309 20.0512C12.0767 19.9127 11.9583 19.7388 11.886 19.5445C11.8136 19.3502 11.7895 19.1412 11.8156 18.9355C11.8417 18.7299 11.9173 18.5336 12.0359 18.3635C12.1545 18.1934 12.3126 18.0547 12.4965 17.9591C12.6805 17.8635 12.8849 17.8139 13.0923 17.8146H13.1923C13.4447 17.8343 13.6857 17.9283 13.8848 18.0848C14.0839 18.2412 14.2322 18.4531 14.3111 18.6937C14.39 18.9344 14.3958 19.1929 14.328 19.4369C14.2601 19.6808 14.1216 19.8993 13.9298 20.0646ZM17.4773 22.1171C17.35 22.227 17.2023 22.3108 17.0426 22.3635C16.883 22.4163 16.7144 22.437 16.5467 22.4244C16.379 22.4119 16.2155 22.3663 16.0654 22.2904C15.9153 22.2145 15.7817 22.1097 15.6723 21.9821C15.5117 21.7965 15.4078 21.5686 15.3731 21.3255C15.3384 21.0825 15.3743 20.8347 15.4765 20.6115C15.5788 20.3883 15.743 20.1993 15.9497 20.0668C16.1564 19.9344 16.3968 19.8642 16.6423 19.8646H16.7398C16.9939 19.8809 17.2373 19.9727 17.439 20.1281C17.6407 20.2836 17.7915 20.4956 17.872 20.7372C17.9525 20.9788 17.9592 21.2388 17.8911 21.4842C17.823 21.7296 17.6833 21.9491 17.4898 22.1146L17.4773 22.1171ZM18.8673 20.6496C18.788 20.2793 18.616 19.9352 18.3673 19.6496C18.0034 19.2267 17.497 18.952 16.9442 18.8774C16.3913 18.8027 15.8303 18.9334 15.3673 19.2446C15.3966 18.8315 15.313 18.4183 15.1254 18.0491C14.9378 17.68 14.6534 17.3688 14.3025 17.1489C13.9516 16.929 13.5475 16.8088 13.1335 16.8009C12.7195 16.7931 12.3112 16.8981 11.9523 17.1046C11.9599 17.0591 11.9649 17.0132 11.9673 16.9671C12.0016 16.5229 11.9049 16.0785 11.6891 15.6887C11.4734 15.299 11.1481 14.9811 10.7535 14.7743C10.3589 14.5676 9.91236 14.4811 9.46912 14.5256C9.02588 14.5701 8.60541 14.7436 8.25977 15.0246C8.29295 14.8934 8.3147 14.7596 8.32477 14.6246C8.37026 14.0213 8.17435 13.4246 7.78011 12.9657C7.38586 12.5067 6.82554 12.2231 6.22227 12.1771C6.16893 12.1771 6.11644 12.1771 6.06477 12.1771C6.26365 11.9273 6.40792 11.6386 6.48824 11.3296C6.56857 11.0205 6.58317 10.6981 6.5311 10.3831C6.47903 10.0681 6.36145 9.7675 6.18595 9.50076C6.01046 9.23403 5.78095 9.00709 5.51227 8.83459C5.81809 8.74481 6.10112 8.59051 6.34227 8.38209C6.7272 8.05226 6.99124 7.60355 7.09265 7.10689C7.19407 6.61023 7.12708 6.09393 6.90227 5.63959C7.02405 5.66766 7.14771 5.68688 7.27227 5.69709H7.44727C7.96258 5.69524 8.46218 5.51945 8.86511 5.1982C9.26804 4.87695 9.55069 4.42905 9.66727 3.92709C9.75747 4.23401 9.91264 4.51794 10.1223 4.75959C10.3148 4.99118 10.5518 5.18176 10.8194 5.32003C11.0869 5.45831 11.3795 5.54147 11.6798 5.56459H11.8548C12.2654 5.56237 12.6679 5.44952 13.0199 5.23791C13.3718 5.0263 13.6602 4.72375 13.8548 4.36209C13.8876 4.913 14.119 5.43335 14.506 5.8268C14.893 6.22025 15.4095 6.46015 15.9598 6.50209H16.1348C16.4649 6.50307 16.7912 6.43048 17.0898 6.28959V6.38709C17.0443 6.9904 17.2402 7.58709 17.6344 8.04602C18.0287 8.50496 18.589 8.78859 19.1923 8.83459H19.3673H19.3823C19.2006 9.15378 19.0986 9.51209 19.085 9.87911C19.0714 10.2461 19.1465 10.611 19.3041 10.9428C19.4616 11.2746 19.6969 11.5634 19.9899 11.7848C20.283 12.0062 20.6251 12.1537 20.9873 12.2146C20.8807 12.2797 20.7796 12.3533 20.6848 12.4346C20.3841 12.6927 20.1559 13.0246 20.0227 13.3978C19.8894 13.7709 19.8557 14.1723 19.9249 14.5625C19.994 14.9526 20.1636 15.318 20.417 15.6226C20.6704 15.9272 20.9987 16.1605 21.3698 16.2996C20.9476 16.6642 20.674 17.1711 20.6007 17.724C20.5274 18.277 20.6597 18.8376 20.9723 19.2996C20.5744 19.2808 20.1823 19.4 19.8623 19.6371L19.4073 19.9721C19.175 20.1456 18.9894 20.3741 18.8673 20.6371V20.6496Z" fill="#03AA77"/>
</g>
<defs>
<clipPath id="clip0_0_1128">
<rect width="32" height="32" fill="white" transform="translate(0.342285 -6.10352e-05)"/>
</clipPath>
</defs>
</svg>
